<?xml version="1.0" standalone="no"?>
<!DOCTYPE svg PUBLIC "-//W3C//DTD SVG 20010904//EN"
 "http://www.w3.org/TR/2001/REC-SVG-20010904/DTD/svg10.dtd">
<svg version="1.0" xmlns="http://www.w3.org/2000/svg"
 width="700.000000pt" height="700.000000pt" viewBox="0 0 700.000000 700.000000"
 preserveAspectRatio="xMidYMid meet">

<g transform="translate(0.000000,700.000000) scale(0.100000,-0.100000)"
fill="#000000" stroke="none">
<path d="M3238 6406 c-49 -13 -63 -22 -115 -70 -21 -19 -33 -39 -33 -55 0 -15
27 -179 60 -366 33 -187 60 -353 60 -368 0 -45 -49 -87 -100 -87 -33 0 -48 6
-71 29 -16 16 -29 35 -29 43 -1 24 -108 620 -113 625 -7 7 -61 -23 -144 -78
-335 -226 -553 -605 -580 -1005 l-6 -91 -59 -6 c-204 -18 -258 -275 -77 -368
38 -19 64 -19 1483 -17 l1444 3 39 31 c147 117 83 334 -104 351 l-60 6 -6 91
c-21 317 -159 618 -389 846 -104 104 -317 254 -335 237 -3 -3 -29 -144 -59
-314 -30 -169 -57 -316 -60 -325 -9 -31 -54 -58 -96 -58 -49 0 -98 43 -98 87
0 15 27 181 60 368 33 187 60 352 60 366 0 18 -13 38 -40 63 -74 67 -89 70
-350 73 -170 2 -248 -1 -282 -11z"/>
<path d="M2062 4332 c-8 -22 8 -162 28 -249 35 -149 97 -262 169 -307 27 -17
43 -38 56 -73 27 -74 129 -274 184 -363 170 -274 409 -502 632 -604 284 -129
588 -96 866 96 253 174 514 522 647 863 20 51 36 75 59 90 93 59 185 306 187
498 0 56 -1 57 -27 57 -16 0 -651 1 -1412 3 -1136 2 -1384 0 -1389 -11z"/>
<path d="M2350 2609 c-52 -5 -156 -13 -229 -19 -159 -13 -330 -47 -426 -85
-301 -121 -523 -407 -682 -879 -24 -72 -46 -160 -49 -196 -8 -87 10 -189 47
-267 113 -237 563 -415 1282 -508 1128 -145 2578 -64 3237 182 321 120 465
252 501 457 16 97 6 182 -41 323 -106 322 -232 539 -412 708 -194 184 -376
245 -813 275 -88 5 -185 13 -215 16 l-55 6 -19 -37 c-72 -134 -311 -255 -616
-312 -136 -26 -583 -26 -719 0 -305 57 -544 178 -616 311 -22 40 -13 39 -175
25z"/>
</g>
</svg>
